<svg width="36" height="36" viewBox="0 0 36 36" fill="none" xmlns="http://www.w3.org/2000/svg">
<path d="M32.1321 0H3.85585C2.83322 0 1.85247 0.40624 1.12935 1.12935C0.40624 1.85247 0 2.83322 0 3.85585L0 32.1321C0 33.1547 0.40624 34.1355 1.12935 34.8586C1.85247 35.5817 2.83322 35.9879 3.85585 35.9879H14.8812V23.7528H9.82037V17.994H14.8812V13.6047C14.8812 8.61221 17.8534 5.85447 22.4057 5.85447C24.5859 5.85447 26.8656 6.24327 26.8656 6.24327V11.1434H24.3537C21.8787 11.1434 21.1068 12.6793 21.1068 14.2546V17.994H26.6319L25.7483 23.7528H21.1068V35.9879H32.1321C33.1547 35.9879 34.1355 35.5817 34.8586 34.8586C35.5817 34.1355 35.9879 33.1547 35.9879 32.1321V3.85585C35.9879 2.83322 35.5817 1.85247 34.8586 1.12935C34.1355 0.40624 33.1547 0 32.1321 0Z" fill="#F25B22"/>
</svg>
