<svg width="37" height="36" viewBox="0 0 37 36" fill="none" xmlns="http://www.w3.org/2000/svg">
<path d="M18.2339 8.77005C13.1249 8.77005 9.00396 12.891 9.00396 18C9.00396 23.109 13.1249 27.2299 18.2339 27.2299C23.3429 27.2299 27.4639 23.109 27.4639 18C27.4639 12.891 23.3429 8.77005 18.2339 8.77005ZM18.2339 24.0007C14.9323 24.0007 12.2332 21.3096 12.2332 18C12.2332 14.6904 14.9243 11.9993 18.2339 11.9993C21.5435 11.9993 24.2346 14.6904 24.2346 18C24.2346 21.3096 21.5355 24.0007 18.2339 24.0007ZM29.9943 8.3925C29.9943 9.58942 29.0303 10.5454 27.8414 10.5454C26.6445 10.5454 25.6886 9.58139 25.6886 8.3925C25.6886 7.20361 26.6525 6.23965 27.8414 6.23965C29.0303 6.23965 29.9943 7.20361 29.9943 8.3925ZM36.1074 10.5775C35.9708 7.69363 35.3121 5.13913 33.1994 3.03447C31.0948 0.929822 28.5403 0.271115 25.6564 0.12652C22.6842 -0.0421734 13.7756 -0.0421734 10.8034 0.12652C7.92754 0.263082 5.37304 0.921789 3.26035 3.02644C1.14767 5.13109 0.49699 7.6856 0.352396 10.5695C0.183702 13.5417 0.183702 22.4503 0.352396 25.4225C0.488957 28.3064 1.14767 30.8609 3.26035 32.9655C5.37304 35.0702 7.9195 35.7289 10.8034 35.8735C13.7756 36.0422 22.6842 36.0422 25.6564 35.8735C28.5403 35.7369 31.0948 35.0782 33.1994 32.9655C35.3041 30.8609 35.9628 28.3064 36.1074 25.4225C36.2761 22.4503 36.2761 13.5497 36.1074 10.5775ZM32.2676 28.6116C31.641 30.1861 30.428 31.3991 28.8455 32.0337C26.4758 32.9736 20.8527 32.7567 18.2339 32.7567C15.6151 32.7567 9.98399 32.9655 7.62228 32.0337C6.04781 31.4071 4.83482 30.1941 4.20021 28.6116C3.26035 26.2419 3.47724 20.6188 3.47724 18C3.47724 15.3812 3.26838 9.75008 4.20021 7.38837C4.82679 5.8139 6.03978 4.60091 7.62228 3.96631C9.99202 3.02644 15.6151 3.24333 18.2339 3.24333C20.8527 3.24333 26.4838 3.03447 28.8455 3.96631C30.42 4.59288 31.633 5.80587 32.2676 7.38837C33.2075 9.75812 32.9906 15.3812 32.9906 18C32.9906 20.6188 33.2075 26.2499 32.2676 28.6116Z" fill="#F25B22"/>
</svg>
