<svg width="37" height="36" viewBox="0 0 37 36" fill="none" xmlns="http://www.w3.org/2000/svg">
<path d="M18.4458 7.29399C12.6057 7.29399 7.85823 12.0415 7.8502 17.8815C7.8502 19.8817 8.41251 21.8338 9.47287 23.5127L9.72189 23.9143L8.6535 27.8184L12.662 26.766L13.0476 26.999C14.6702 27.963 16.5339 28.4771 18.4377 28.4771H18.4458C24.2777 28.4771 29.1538 23.7296 29.1538 17.8895C29.1538 15.0619 27.9328 12.403 25.9325 10.4028C23.9243 8.39451 21.2734 7.29399 18.4458 7.29399ZM24.6714 22.4282C24.4063 23.1753 23.137 23.85 22.5265 23.9384C21.5144 24.091 20.7271 24.0107 18.7108 23.1431C15.5217 21.7615 13.4332 18.5483 13.2725 18.3394C13.1118 18.1305 11.9711 16.6123 11.9711 15.0459C11.9711 13.4794 12.7905 12.7082 13.0877 12.3869C13.3769 12.0656 13.7223 11.9853 13.9392 11.9853C14.1481 11.9853 14.365 11.9853 14.5497 11.9933C14.7425 12.0013 15.0076 11.921 15.2647 12.5396C15.5298 13.1742 16.1644 14.7406 16.2447 14.9013C16.325 15.0619 16.3813 15.2467 16.2688 15.4555C15.6583 16.6766 15.0076 16.6284 15.337 17.1907C16.566 19.3034 17.7951 20.0344 19.6668 20.9742C19.9881 21.1349 20.1729 21.1108 20.3576 20.8939C20.5424 20.685 21.1529 19.9621 21.3617 19.6488C21.5706 19.3275 21.7875 19.3837 22.0767 19.4881C22.3659 19.5925 23.9323 20.3637 24.2536 20.5244C24.575 20.685 24.7838 20.7654 24.8641 20.8939C24.9364 21.0465 24.9364 21.6892 24.6714 22.4282ZM32.5839 0H4.30763C2.17888 0 0.451782 1.7271 0.451782 3.85585V32.1321C0.451782 34.2608 2.17888 35.9879 4.30763 35.9879H32.5839C34.7126 35.9879 36.4397 34.2608 36.4397 32.1321V3.85585C36.4397 1.7271 34.7126 0 32.5839 0ZM18.4377 30.6219C16.3009 30.6219 14.2043 30.0837 12.3487 29.0715L5.59292 30.8468L7.40035 24.2437C6.28376 22.3157 5.69735 20.1227 5.69735 17.8735C5.70538 10.8526 11.4169 5.14114 18.4377 5.14114C21.8437 5.14114 25.0409 6.46658 27.4508 8.87649C29.8527 11.2864 31.2986 14.4835 31.2986 17.8895C31.2986 24.9104 25.4586 30.6219 18.4377 30.6219Z" fill="#F25B22"/>
</svg>
